<svg width="199" height="81" viewBox="0 0 199 81" fill="none" xmlns="http://www.w3.org/2000/svg">
<path d="M1.08 45.456C0.92 45.456 0.84 45.328 0.84 45.072C0.84 44.848 0.92 44.576 1.08 44.256C1.24 43.936 1.448 43.68 1.704 43.488C1.96 43.328 2.232 43.152 2.52 42.96C2.776 42.8 3.032 42.656 3.288 42.528C3.256 42.464 3.24 42.352 3.24 42.192C3.24 41.936 3.32 41.808 3.48 41.808C3.576 41.808 3.72 41.92 3.912 42.144C6.408 40.768 8.84 39.76 11.208 39.12V38.976C11.208 38.08 10.968 37.248 10.488 36.48C10.04 35.712 9.464 34.928 8.76 34.128C8.056 33.328 7.336 32.448 6.6 31.488C5.896 30.528 5.256 29.44 4.68 28.224C4.136 26.976 3.784 25.52 3.624 23.856C3.592 23.664 3.576 23.472 3.576 23.28C3.576 23.088 3.576 22.896 3.576 22.704C3.576 20.656 4.04 18.8 4.968 17.136C5.896 15.472 7.096 14.048 8.568 12.864C10.072 11.648 11.688 10.704 13.416 10.032C14.792 9.488 16.36 9.216 18.12 9.216C18.76 9.216 19.368 9.264 19.944 9.36C21.64 9.68 22.824 10.24 23.496 11.04C24.168 11.84 24.504 12.64 24.504 13.44C24.504 14.048 24.344 14.592 24.024 15.072C23.704 15.552 23.48 15.792 23.352 15.792C23.256 15.792 23.208 15.728 23.208 15.6C23.208 15.536 23.224 15.44 23.256 15.312C23.32 15.152 23.368 14.992 23.4 14.832C23.496 14.576 23.56 14.352 23.592 14.16C23.624 13.968 23.64 13.776 23.64 13.584C23.64 12.56 23.16 11.808 22.2 11.328C21.272 10.816 20.28 10.56 19.224 10.56C19.096 10.56 18.952 10.56 18.792 10.56C18.632 10.56 18.472 10.576 18.312 10.608C16.296 10.896 14.392 11.632 12.6 12.816C10.808 14 9.288 15.552 8.04 17.472C6.824 19.36 6.024 21.536 5.64 24C5.608 24.224 5.576 24.448 5.544 24.672C5.544 24.896 5.544 25.104 5.544 25.296C5.544 26.8 5.864 28.176 6.504 29.424C7.144 30.64 7.896 31.776 8.76 32.832C9.656 33.888 10.504 34.912 11.304 35.904C12.104 36.864 12.648 37.824 12.936 38.784C13.576 38.656 14.2 38.576 14.808 38.544C15.416 38.512 16.008 38.512 16.584 38.544C17.032 38.608 17.256 38.736 17.256 38.928C17.256 39.12 16.936 39.216 16.296 39.216C15.848 39.216 15.352 39.248 14.808 39.312C14.264 39.344 13.688 39.44 13.08 39.6C13.112 39.696 13.128 39.792 13.128 39.888C13.128 39.984 13.128 40.064 13.128 40.128C13.128 40.448 13.08 40.784 12.984 41.136C12.568 42.416 11.816 43.36 10.728 43.968C9.64 44.576 8.536 44.88 7.416 44.88C6.328 44.88 5.416 44.656 4.68 44.208C4.424 44.08 4.184 43.904 3.96 43.68C3.544 43.904 3.128 44.16 2.712 44.448C2.264 44.736 1.832 45.024 1.416 45.312C1.288 45.408 1.176 45.456 1.08 45.456ZM6.984 44.016C7.912 44.016 8.824 43.712 9.72 43.104C10.616 42.528 11.112 41.552 11.208 40.176C9.096 40.912 6.92 41.936 4.68 43.248C5.192 43.76 5.96 44.016 6.984 44.016ZM15.7852 36.7383C15.7852 35.1992 16.3281 33.8789 17.4141 32.7773C18.5078 31.668 19.8164 31.1133 21.3398 31.1133C22.8633 31.1133 24.1875 31.6523 25.3125 32.7305C26.4375 33.8008 27 35.125 27 36.7031C27 38.2812 26.4648 39.6133 25.3945 40.6992C24.332 41.7773 22.9961 42.3164 21.3867 42.3164C19.7773 42.3164 18.4414 41.7695 17.3789 40.6758C16.3164 39.582 15.7852 38.2695 15.7852 36.7383ZM18.7031 39.75C19.4688 41.0391 20.5117 41.6836 21.832 41.6836C22.8555 41.6836 23.6367 41.2734 24.1758 40.4531C24.7227 39.6328 24.9961 38.625 24.9961 37.4297C24.9961 36.2344 24.6133 35.0078 23.8477 33.75C23.0898 32.4922 22.0664 31.8633 20.7773 31.8633C19.832 31.8633 19.0859 32.2734 18.5391 33.0938C18 33.9062 17.7305 34.9414 17.7305 36.1992C17.7305 37.4492 18.0547 38.6328 18.7031 39.75ZM36.7266 40.9688C36.6875 40.8359 36.6367 40.793 36.5742 40.8398C36.5117 40.8789 36.2578 41.0117 35.8125 41.2383C34.3516 41.9648 33.1328 42.3281 32.1562 42.3281C31.1797 42.3281 30.4766 42.0156 30.0469 41.3906C29.8906 41.1562 29.8125 40.8672 29.8125 40.5234V33.375C29.7891 33.1484 29.6875 32.9531 29.5078 32.7891C29.2656 32.5859 29.0117 32.4766 28.7461 32.4609C28.4883 32.4453 28.3594 32.3672 28.3594 32.2266C28.3594 32.0781 28.4219 31.9883 28.5469 31.957L31.2305 31.1836C31.3242 31.1523 31.4141 31.1367 31.5 31.1367C31.5938 31.1367 31.6406 31.2031 31.6406 31.3359V39.1992C31.6406 39.7461 31.8828 40.168 32.3672 40.4648C32.8516 40.7617 33.4688 40.9102 34.2188 40.9102C34.9766 40.9102 35.6562 40.6797 36.2578 40.2188C36.4453 40.0703 36.6016 39.9062 36.7266 39.7266V33.375C36.7031 33.1484 36.6016 32.9531 36.4219 32.7891C36.1797 32.5859 35.9258 32.4766 35.6602 32.4609C35.4023 32.4453 35.2734 32.3672 35.2734 32.2266C35.2734 32.0781 35.3359 31.9883 35.4609 31.957L38.1445 31.1836C38.2383 31.1523 38.3281 31.1367 38.4141 31.1367C38.5078 31.1367 38.5547 31.2148 38.5547 31.3711V39.6914C38.5938 40.0352 38.6914 40.2812 38.8477 40.4297C39.0039 40.5781 39.2578 40.6523 39.6094 40.6523L40.2891 40.6055C40.3359 40.6055 40.3594 40.6523 40.3594 40.7461C40.3594 40.832 40.3008 40.9023 40.1836 40.957L37.0664 42.2461C36.9727 42.293 36.8906 42.3164 36.8203 42.3164C36.7578 42.3164 36.7266 42.2188 36.7266 42.0234V40.9688ZM49.0078 33.5977C48.9141 33.582 48.7773 33.5312 48.5977 33.4453C47.9492 33.1484 47.4414 33 47.0742 33C46.707 33 46.3203 33.2305 45.9141 33.6914C45.5156 34.1445 45.3164 34.5547 45.3164 34.9219V40.2188C45.3164 40.8047 45.6562 41.1953 46.3359 41.3906C46.6328 41.4688 46.9102 41.5273 47.168 41.5664C47.4258 41.5977 47.5898 41.6289 47.6602 41.6602C47.7383 41.6914 47.7773 41.7539 47.7773 41.8477C47.7773 41.9336 47.7383 41.9844 47.6602 42H41.7891C41.7109 41.9844 41.6719 41.9297 41.6719 41.8359C41.6719 41.6953 41.8555 41.6016 42.2227 41.5547C43.0664 41.4297 43.4883 40.9844 43.4883 40.2188V34.0195C43.4883 33.6914 43.3086 33.4648 42.9492 33.3398C42.793 33.2852 42.625 33.2422 42.4453 33.2109C42.2656 33.1719 42.1211 33.1367 42.0117 33.1055C41.9102 33.0742 41.8438 33.0469 41.8125 33.0234C41.7891 32.9922 41.7773 32.9336 41.7773 32.8477C41.7773 32.7539 41.8359 32.6758 41.9531 32.6133L44.9414 31.207C45.0352 31.1602 45.0938 31.1367 45.1172 31.1367C45.25 31.1367 45.3164 31.2305 45.3164 31.418V33.3164C45.3164 33.4102 45.3398 33.457 45.3867 33.457C45.4492 33.457 45.6094 33.2734 45.8672 32.9062C46.6094 31.8672 47.2227 31.3477 47.707 31.3477C47.9805 31.3477 48.3984 31.457 48.9609 31.6758C49.5312 31.8945 49.8164 32.0781 49.8164 32.2266C49.8164 32.4062 49.7266 32.6797 49.5469 33.0469C49.3672 33.4141 49.1875 33.5977 49.0078 33.5977ZM59.8477 32.543C59.8477 33.0898 59.5312 33.3633 58.8984 33.3633C58.5781 33.3633 58.3047 33.2734 58.0781 33.0938C57.8594 32.9062 57.6875 32.75 57.5625 32.625C57.4453 32.4922 57.3203 32.3711 57.1875 32.2617C56.625 31.8008 55.9375 31.75 55.125 32.1094C54.3203 32.4688 53.6992 33.2344 53.2617 34.4062C53.0195 35.0547 52.8984 35.6992 52.8984 36.3398C52.8984 37.7148 53.2109 38.8398 53.8359 39.7148C54.4609 40.582 55.418 41.0156 56.707 41.0156C57.668 41.0156 58.5312 40.5859 59.2969 39.7266C59.5312 39.4688 59.6719 39.3398 59.7188 39.3398C59.7656 39.3398 59.8164 39.3633 59.8711 39.4102C59.9258 39.457 59.9531 39.5273 59.9531 39.6211C59.9531 39.707 59.9297 39.7734 59.8828 39.8203C58.6875 41.4844 57.1836 42.3164 55.3711 42.3164C54.0586 42.3164 52.9805 41.8281 52.1367 40.8516C51.3008 39.875 50.8828 38.7578 50.8828 37.5C50.8906 35.1719 51.4531 33.4961 52.5703 32.4727C53.5547 31.5742 54.957 31.125 56.7773 31.125C57.9023 31.125 58.6484 31.2383 59.0156 31.4648C59.3828 31.6914 59.6406 31.9766 59.7891 32.3203C59.8281 32.3984 59.8477 32.4727 59.8477 32.543ZM63.4805 35.8242C63.3477 35.8242 63.2812 36.1094 63.2812 36.6797C63.2812 37.8906 63.6406 38.9062 64.3594 39.7266C65.0781 40.5469 65.9688 40.957 67.0312 40.957C68.1016 40.957 69.1289 40.4961 70.1133 39.5742C70.1289 39.5586 70.1484 39.5508 70.1719 39.5508H70.2305C70.2773 39.5508 70.3203 39.5898 70.3594 39.668C70.4062 39.7383 70.4492 39.7852 70.4883 39.8086C69.582 40.9102 68.5156 41.6719 67.2891 42.0938C66.8672 42.2422 66.3906 42.3164 65.8594 42.3164C65.3281 42.3164 64.7891 42.1719 64.2422 41.8828C63.6953 41.5859 63.2266 41.1992 62.8359 40.7227C62.0078 39.7305 61.5938 38.4961 61.5938 37.0195C61.5938 35.5352 62.043 34.1836 62.9414 32.9648C63.8477 31.7461 65.0898 31.1367 66.668 31.1367C67.8008 31.1367 68.7266 31.6445 69.4453 32.6602C70.1641 33.668 70.5234 34.5547 70.5234 35.3203C70.5234 35.6562 70.4414 35.8242 70.2773 35.8242H63.4805ZM63.6094 34.6992C63.6094 34.8477 63.6797 34.9219 63.8203 34.9219H68.2383C68.4414 34.9219 68.543 34.8008 68.543 34.5586C68.543 33.9961 68.2891 33.4219 67.7812 32.8359C67.2812 32.2422 66.7305 31.9453 66.1289 31.9453C65.543 31.9453 65.0078 32.2109 64.5234 32.7422C64.0469 33.2734 63.7422 33.8789 63.6094 34.5586V34.6992ZM86.168 31.6289C86.5117 31.7461 86.7227 31.8047 86.8008 31.8047C86.8789 31.8047 86.9258 31.8047 86.9414 31.8047C86.9648 31.7969 86.9922 31.7461 87.0234 31.6523V25.6055C87.0234 25.2773 86.8438 25.0508 86.4844 24.9258C86.3281 24.8711 86.1602 24.8281 85.9805 24.7969C85.8008 24.7578 85.6562 24.7227 85.5469 24.6914C85.4453 24.6602 85.3789 24.6328 85.3477 24.6094C85.3242 24.5781 85.3125 24.5195 85.3125 24.4336C85.3125 24.3398 85.3711 24.2617 85.4883 24.1992L88.4766 22.793C88.5703 22.7461 88.6289 22.7227 88.6523 22.7227C88.7852 22.7227 88.8516 22.8164 88.8516 23.0039V39.6914C88.8906 40.0352 88.9883 40.2812 89.1445 40.4297C89.3008 40.5781 89.5547 40.6523 89.9062 40.6523L90.5859 40.6055C90.6328 40.6055 90.6562 40.6523 90.6562 40.7461C90.6562 40.832 90.5977 40.9023 90.4805 40.957L87.3633 42.2461C87.2695 42.293 87.1875 42.3164 87.1172 42.3164C87.0547 42.3164 87.0234 42.2188 87.0234 42.0234V40.957C87.0234 40.8789 87.0039 40.8398 86.9648 40.8398C86.9102 40.8398 86.5859 41.0156 85.9922 41.3672C84.1719 42.4453 82.6367 42.6055 81.3867 41.8477C80.3867 41.2383 79.7109 40.2734 79.3594 38.9531C79.1953 38.3359 79.1133 37.6836 79.1133 36.9961C79.1133 36.3008 79.2539 35.6133 79.5352 34.9336C79.8242 34.2461 80.2188 33.6445 80.7188 33.1289C81.8203 32.0039 83.1484 31.4414 84.7031 31.4414C85.3359 31.4414 85.8242 31.5039 86.168 31.6289ZM80.8828 36.6562C80.8828 37.8359 81.2109 38.8711 81.8672 39.7617C82.5234 40.6445 83.4375 41.0859 84.6094 41.0859C85.125 41.0859 85.6562 40.9609 86.2031 40.7109C86.75 40.4531 87.0234 40.2578 87.0234 40.125V34.0781C87.0234 33.9297 86.9219 33.7539 86.7188 33.5508C86.0938 32.6914 85.2617 32.2617 84.2227 32.2617C83.1914 32.2617 82.375 32.6992 81.7734 33.5742C81.1797 34.4414 80.8828 35.4688 80.8828 36.6562ZM95.6719 27.6328C95.6719 29.0859 94.9883 30.2969 93.6211 31.2656C93.3086 31.4922 93.0703 31.6055 92.9062 31.6055C92.7969 31.6055 92.7422 31.5391 92.7422 31.4062C92.7422 31.2656 92.7656 31.168 92.8125 31.1133C92.8594 31.0508 92.9141 30.9961 92.9766 30.9492C93.0391 30.9023 93.0977 30.8594 93.1523 30.8203C93.2148 30.7812 93.2891 30.7266 93.375 30.6562C94.1562 29.9453 94.5469 29.3008 94.5469 28.7227C94.5469 28.3867 94.4023 28.2188 94.1133 28.2188C93.332 28.2188 92.8125 27.9727 92.5547 27.4805C92.4609 27.3008 92.4141 27.0508 92.4141 26.7305C92.4141 26.4102 92.5547 26.1211 92.8359 25.8633C93.125 25.6055 93.4336 25.4766 93.7617 25.4766C94.3711 25.4766 94.8398 25.7188 95.168 26.2031C95.5039 26.6797 95.6719 27.1562 95.6719 27.6328ZM92.8509 52.992C92.1469 53.024 91.6029 52.896 91.2189 52.608C90.8029 52.32 90.6589 51.776 90.7869 50.976C90.7869 50.88 90.8189 50.736 90.8829 50.544C90.9469 50.352 91.0269 50.224 91.1229 50.16C91.0909 50.96 91.1869 51.52 91.4109 51.84C91.6349 52.16 92.0029 52.32 92.5149 52.32C93.7629 52.32 95.0429 51.92 96.3549 51.12C97.6989 50.32 99.0269 49.248 100.339 47.904C100.019 47.808 99.6029 47.616 99.0909 47.328C98.6109 47.072 98.2429 46.864 97.9869 46.704C96.7069 45.776 96.0669 44.704 96.0669 43.488C96.0669 42.56 96.4829 41.552 97.3149 40.464C98.1469 39.376 99.5069 38.272 101.395 37.152C102.611 36.416 104.019 35.76 105.619 35.184C107.219 34.608 108.707 34.144 110.083 33.792C110.563 32.864 111.027 31.952 111.475 31.056C111.923 30.16 112.355 29.264 112.771 28.368C112.931 28.016 113.219 27.344 113.635 26.352C114.051 25.36 114.515 24.192 115.027 22.848C115.539 21.504 116.019 20.08 116.467 18.576C116.947 17.04 117.347 15.552 117.667 14.112C117.987 12.672 118.147 11.392 118.147 10.272C118.147 9.184 117.955 8.336 117.571 7.728C117.219 7.12 116.579 6.816 115.651 6.816H115.603C115.347 6.816 115.219 6.736 115.219 6.576C115.219 6.416 115.379 6.304 115.699 6.24C117.235 6.08 118.307 6.448 118.915 7.344C119.523 8.24 119.827 9.424 119.827 10.896C119.827 11.152 119.811 11.424 119.779 11.712C119.779 12 119.763 12.304 119.731 12.624C119.923 12.784 120.051 13.056 120.115 13.44C120.307 14.464 120.499 15.808 120.691 17.472C120.915 19.136 121.171 20.96 121.459 22.944C121.747 24.928 122.083 26.944 122.467 28.992C122.883 31.008 123.363 32.912 123.907 34.704C124.483 36.464 125.155 37.952 125.923 39.168C126.083 39.424 126.307 39.76 126.595 40.176C126.883 40.56 127.235 40.912 127.651 41.232C128.067 41.552 128.531 41.712 129.043 41.712C129.587 41.712 130.147 41.488 130.723 41.04C131.235 40.624 131.715 40.048 132.163 39.312C132.611 38.576 133.027 37.792 133.411 36.96C133.603 36.608 133.779 36.432 133.939 36.432C134.099 36.432 134.211 36.528 134.275 36.72C134.371 36.88 134.403 37.04 134.371 37.2C134.243 37.616 133.971 38.112 133.555 38.688C133.171 39.232 132.771 39.744 132.355 40.224C131.939 40.672 131.603 40.992 131.347 41.184C130.771 41.632 130.211 41.952 129.667 42.144C129.155 42.368 128.675 42.48 128.227 42.48C127.171 42.48 126.243 42.08 125.443 41.28C124.675 40.448 124.003 39.584 123.427 38.688C122.627 37.408 121.987 35.792 121.507 33.84C121.059 31.888 120.707 29.776 120.451 27.504C120.195 25.232 119.987 22.992 119.827 20.784C119.699 18.576 119.555 16.56 119.395 14.736C119.011 16.528 118.483 18.368 117.811 20.256C117.139 22.144 116.451 23.888 115.747 25.488C115.075 27.056 114.515 28.272 114.067 29.136C113.363 30.576 112.595 32.016 111.763 33.456C113.235 33.104 114.771 32.784 116.371 32.496C117.971 32.208 119.379 31.936 120.595 31.68H120.739C120.867 31.68 120.931 31.728 120.931 31.824C120.931 31.92 120.851 32.048 120.691 32.208C120.531 32.368 120.323 32.48 120.067 32.544C118.691 32.8 117.203 33.104 115.603 33.456C114.003 33.776 112.499 34.128 111.091 34.512C109.619 37.04 108.131 39.44 106.627 41.712C105.123 43.984 103.475 46 101.683 47.76C102.899 48.144 104.451 48.336 106.339 48.336H106.435C106.691 48.336 106.819 48.4 106.819 48.528C106.819 48.72 106.627 48.816 106.243 48.816C105.347 48.848 104.467 48.8 103.603 48.672C102.739 48.576 101.939 48.416 101.203 48.192C99.7949 49.568 98.3709 50.672 96.9309 51.504C95.5229 52.368 94.1629 52.864 92.8509 52.992ZM100.819 47.424C102.355 45.824 103.843 43.952 105.283 41.808C106.755 39.664 108.131 37.424 109.411 35.088C108.995 35.216 108.563 35.36 108.115 35.52C107.667 35.68 107.235 35.872 106.819 36.096C106.275 36.352 105.539 36.72 104.611 37.2C103.683 37.68 102.755 38.192 101.827 38.736C100.931 39.248 100.243 39.712 99.7629 40.128C99.1229 40.704 98.6589 41.264 98.3709 41.808C98.0829 42.352 97.9389 42.88 97.9389 43.392C97.9389 43.84 98.0189 44.272 98.1789 44.688C98.3709 45.104 98.5949 45.504 98.8509 45.888C99.0109 46.08 99.2989 46.336 99.7149 46.656C100.163 47.008 100.531 47.264 100.819 47.424ZM141.82 38.3086L141.797 35.8359C141.797 34.8281 141.711 34.1211 141.539 33.7148C141.367 33.3086 141.148 33.0039 140.883 32.8008C140.617 32.5898 140.258 32.4844 139.805 32.4844C139.359 32.4844 138.41 32.8359 136.957 33.5391C136.762 33.6562 136.66 33.7656 136.652 33.8672V40.1719C136.652 40.9609 137.074 41.4141 137.918 41.5312C138.285 41.5859 138.469 41.6758 138.469 41.8008C138.469 41.918 138.43 41.9844 138.352 42H133.125C133.047 41.9844 133.008 41.9297 133.008 41.8359C133.008 41.6875 133.191 41.5859 133.559 41.5312C134.402 41.4141 134.824 40.9609 134.824 40.1719V33.4453C134.824 33.1172 134.645 32.8906 134.285 32.7656C134.129 32.7109 133.961 32.668 133.781 32.6367C133.602 32.5977 133.457 32.5625 133.348 32.5312C133.246 32.5 133.18 32.4727 133.148 32.4492C133.125 32.418 133.113 32.3594 133.113 32.2734C133.113 32.1797 133.172 32.1016 133.289 32.0391L136.277 30.6328C136.371 30.5859 136.43 30.5625 136.453 30.5625C136.586 30.5625 136.652 30.6562 136.652 30.8438V32.6719C136.676 32.75 136.707 32.7891 136.746 32.7891C136.793 32.7891 136.961 32.7188 137.25 32.5781C137.922 32.2422 138.598 31.918 139.277 31.6055C139.957 31.293 140.52 31.1367 140.965 31.1367C142.77 31.1367 143.672 32.7812 143.672 36.0703L143.566 39.4922V40.1719C143.566 40.7812 143.871 41.1797 144.48 41.3672C144.738 41.4531 144.984 41.5156 145.219 41.5547C145.461 41.5859 145.617 41.6172 145.688 41.6484C145.766 41.6797 145.805 41.7422 145.805 41.8359C145.805 41.9297 145.766 41.9844 145.688 42H140.039C139.961 41.9844 139.922 41.9297 139.922 41.8359C139.922 41.6875 140.105 41.5859 140.473 41.5312C141.309 41.4141 141.727 40.9297 141.727 40.0781C141.789 39.6875 141.82 39.0977 141.82 38.3086ZM154.172 40.0664C154.172 40.2695 154.266 40.4336 154.453 40.5586C154.648 40.6758 154.871 40.7344 155.121 40.7344C155.371 40.7344 155.578 40.6719 155.742 40.5469C155.914 40.4141 156.031 40.3477 156.094 40.3477C156.156 40.3477 156.188 40.4336 156.188 40.6055C156.188 40.7695 156.109 40.9102 155.953 41.0273C154.781 41.8867 153.988 42.3164 153.574 42.3164C153.074 42.3164 152.668 41.7969 152.355 40.7578C152.332 40.6797 152.312 40.6445 152.297 40.6523C151.328 41.3789 150.719 41.8164 150.469 41.9648C149.828 42.332 149.184 42.3906 148.535 42.1406C147.895 41.8906 147.43 41.4766 147.141 40.8984C147 40.6016 146.93 40.2852 146.93 39.9492C146.93 39.2852 147.176 38.7578 147.668 38.3672C148.16 37.9766 149.098 37.6016 150.48 37.2422C150.949 37.1172 151.367 36.957 151.734 36.7617C152.102 36.5664 152.293 36.4414 152.309 36.3867C152.332 36.332 152.344 36.2812 152.344 36.2344V33.9844C152.344 33.1016 152 32.4805 151.312 32.1211C151.086 32.0039 150.812 31.9453 150.492 31.9453C150.18 31.9453 149.859 32.0703 149.531 32.3203C149.211 32.5703 149.051 32.9258 149.051 33.3867L149.109 33.8438C149.062 33.9375 148.781 34.0938 148.266 34.3125C147.75 34.5312 147.453 34.6484 147.375 34.6641C147.25 34.6641 147.188 34.5156 147.188 34.2188C147.188 33.9141 147.277 33.5781 147.457 33.2109C147.637 32.8438 147.891 32.5078 148.219 32.2031C148.984 31.4922 149.859 31.1367 150.844 31.1367C151.828 31.1367 152.629 31.4102 153.246 31.957C153.863 32.4961 154.172 33.1406 154.172 33.8906V40.0664ZM148.77 39.7266C148.77 40.1016 148.914 40.4297 149.203 40.7109C149.492 40.9844 149.82 41.1211 150.188 41.1211C150.562 41.1211 151.016 40.9648 151.547 40.6523C152.078 40.332 152.344 40.0039 152.344 39.668V37.2891C152.344 37.2031 152.324 37.1602 152.285 37.1602C152.246 37.1602 152.219 37.1641 152.203 37.1719L149.484 38.4375C149.203 38.6406 149.012 38.8125 148.91 38.9531C148.816 39.0938 148.77 39.3516 148.77 39.7266ZM152.953 27.3281C153.445 27.3281 153.758 27.0586 153.891 26.5195C153.93 26.3789 153.949 26.2539 153.949 26.1445C153.949 26.0273 154.012 25.9688 154.137 25.9688H154.359C154.469 25.9688 154.523 26.1914 154.523 26.6367C154.523 27.0742 154.348 27.5273 153.996 27.9961C153.645 28.4648 153.215 28.6992 152.707 28.6992C152.207 28.6992 151.695 28.5625 151.172 28.2891C150.172 27.75 149.512 27.4805 149.191 27.4805C148.879 27.4805 148.609 27.6172 148.383 27.8906C148.156 28.1562 148.043 28.4688 148.043 28.8281C148.043 28.9219 147.98 28.9688 147.855 28.9688H147.609C147.547 28.9688 147.516 28.8477 147.516 28.6055C147.516 27.9727 147.684 27.3984 148.02 26.8828C148.355 26.3594 148.766 26.0977 149.25 26.0977C149.742 26.0977 150.402 26.3047 151.23 26.7188C152.066 27.125 152.641 27.3281 152.953 27.3281ZM160.488 32.9297C160.488 33.1172 160.516 33.2109 160.57 33.2109C160.625 33.2109 160.664 33.1992 160.688 33.1758C160.711 33.1445 160.875 32.9609 161.18 32.625C162.062 31.6406 162.957 31.1484 163.863 31.1484C165.051 31.1484 165.922 31.4141 166.477 31.9453C167.156 32.6172 167.496 33.7461 167.496 35.332V40.2188C167.496 40.9844 167.918 41.4297 168.762 41.5547C169.129 41.6016 169.312 41.6836 169.312 41.8008C169.312 41.918 169.273 41.9844 169.195 42H163.969C163.891 41.9844 163.852 41.9297 163.852 41.8359C163.852 41.6953 164.035 41.6016 164.402 41.5547C165.246 41.4297 165.668 40.9844 165.668 40.2188V35.4492C165.668 34.3008 165.586 33.5547 165.422 33.2109C165.109 32.5234 164.457 32.1797 163.465 32.1797C162.855 32.1797 162.207 32.4414 161.52 32.9648C160.832 33.4805 160.488 34.0508 160.488 34.6758V40.2188C160.488 40.9844 160.91 41.4297 161.754 41.5547C162.121 41.6016 162.305 41.6836 162.305 41.8008C162.305 41.918 162.266 41.9844 162.188 42H156.961C156.883 41.9844 156.844 41.9297 156.844 41.8359C156.844 41.6953 157.027 41.6016 157.395 41.5547C158.238 41.4297 158.66 40.9844 158.66 40.2188V25.6055C158.66 25.2773 158.48 25.0508 158.121 24.9258C157.965 24.8711 157.797 24.8281 157.617 24.7969C157.438 24.7578 157.293 24.7227 157.184 24.6914C157.082 24.6602 157.016 24.6328 156.984 24.6094C156.961 24.5781 156.949 24.5195 156.949 24.4336C156.949 24.3398 157.008 24.2617 157.125 24.1992L160.113 22.793C160.207 22.7461 160.266 22.7227 160.289 22.7227C160.422 22.7227 160.488 22.8164 160.488 23.0039V32.9297ZM177.727 40.0664C177.727 40.2695 177.82 40.4336 178.008 40.5586C178.203 40.6758 178.426 40.7344 178.676 40.7344C178.926 40.7344 179.133 40.6719 179.297 40.5469C179.469 40.4141 179.586 40.3477 179.648 40.3477C179.711 40.3477 179.742 40.4336 179.742 40.6055C179.742 40.7695 179.664 40.9102 179.508 41.0273C178.336 41.8867 177.543 42.3164 177.129 42.3164C176.629 42.3164 176.223 41.7969 175.91 40.7578C175.887 40.6797 175.867 40.6445 175.852 40.6523C174.883 41.3789 174.273 41.8164 174.023 41.9648C173.383 42.332 172.738 42.3906 172.09 42.1406C171.449 41.8906 170.984 41.4766 170.695 40.8984C170.555 40.6016 170.484 40.2852 170.484 39.9492C170.484 39.2852 170.73 38.7578 171.223 38.3672C171.715 37.9766 172.652 37.6016 174.035 37.2422C174.504 37.1172 174.922 36.957 175.289 36.7617C175.656 36.5664 175.848 36.4414 175.863 36.3867C175.887 36.332 175.898 36.2812 175.898 36.2344V33.9844C175.898 33.1016 175.555 32.4805 174.867 32.1211C174.641 32.0039 174.367 31.9453 174.047 31.9453C173.734 31.9453 173.414 32.0703 173.086 32.3203C172.766 32.5703 172.605 32.9258 172.605 33.3867L172.664 33.8438C172.617 33.9375 172.336 34.0938 171.82 34.3125C171.305 34.5312 171.008 34.6484 170.93 34.6641C170.805 34.6641 170.742 34.5156 170.742 34.2188C170.742 33.9141 170.832 33.5781 171.012 33.2109C171.191 32.8438 171.445 32.5078 171.773 32.2031C172.539 31.4922 173.414 31.1367 174.398 31.1367C175.383 31.1367 176.184 31.4102 176.801 31.957C177.418 32.4961 177.727 33.1406 177.727 33.8906V40.0664ZM172.324 39.7266C172.324 40.1016 172.469 40.4297 172.758 40.7109C173.047 40.9844 173.375 41.1211 173.742 41.1211C174.117 41.1211 174.57 40.9648 175.102 40.6523C175.633 40.332 175.898 40.0039 175.898 39.668V37.2891C175.898 37.2031 175.879 37.1602 175.84 37.1602C175.801 37.1602 175.773 37.1641 175.758 37.1719L173.039 38.4375C172.758 38.6406 172.566 38.8125 172.465 38.9531C172.371 39.0938 172.324 39.3516 172.324 39.7266ZM183.715 32.9883C183.668 32.9883 183.645 33.0234 183.645 33.0938V39.5625C183.645 40.0312 183.746 40.3984 183.949 40.6641C184.16 40.9297 184.426 41.0625 184.746 41.0625C185.066 41.0625 185.344 41.0117 185.578 40.9102C185.82 40.8008 186.027 40.6836 186.199 40.5586C186.379 40.4336 186.539 40.3203 186.68 40.2188C186.82 40.1094 186.945 40.0547 187.055 40.0547C187.164 40.0547 187.219 40.082 187.219 40.1367C187.219 40.3242 187.199 40.4453 187.16 40.5C186.223 41.7109 185.316 42.3164 184.441 42.3164C183.574 42.3164 182.918 42.043 182.473 41.4961C182.035 40.9414 181.816 40.2812 181.816 39.5156V32.9883H180.938C180.719 32.9883 180.602 32.918 180.586 32.7773C180.578 32.6367 180.602 32.5469 180.656 32.5078C181.07 32.2422 181.641 31.7656 182.367 31.0781C182.445 30.9922 182.551 30.8633 182.684 30.6914C182.816 30.5195 183.008 30.2852 183.258 29.9883C183.516 29.6914 183.711 29.543 183.844 29.543C183.977 29.543 184.043 29.5977 184.043 29.707C184.043 29.7227 183.91 30.2344 183.645 31.2422C183.645 31.3828 183.707 31.457 183.832 31.4648H186.82C187.164 31.4648 187.336 31.9492 187.336 32.918C187.336 32.9648 187.305 32.9883 187.242 32.9883H183.715ZM195.703 40.0664C195.703 40.2695 195.797 40.4336 195.984 40.5586C196.18 40.6758 196.402 40.7344 196.652 40.7344C196.902 40.7344 197.109 40.6719 197.273 40.5469C197.445 40.4141 197.562 40.3477 197.625 40.3477C197.688 40.3477 197.719 40.4336 197.719 40.6055C197.719 40.7695 197.641 40.9102 197.484 41.0273C196.312 41.8867 195.52 42.3164 195.105 42.3164C194.605 42.3164 194.199 41.7969 193.887 40.7578C193.863 40.6797 193.844 40.6445 193.828 40.6523C192.859 41.3789 192.25 41.8164 192 41.9648C191.359 42.332 190.715 42.3906 190.066 42.1406C189.426 41.8906 188.961 41.4766 188.672 40.8984C188.531 40.6016 188.461 40.2852 188.461 39.9492C188.461 39.2852 188.707 38.7578 189.199 38.3672C189.691 37.9766 190.629 37.6016 192.012 37.2422C192.48 37.1172 192.898 36.957 193.266 36.7617C193.633 36.5664 193.824 36.4414 193.84 36.3867C193.863 36.332 193.875 36.2812 193.875 36.2344V33.9844C193.875 33.1016 193.531 32.4805 192.844 32.1211C192.617 32.0039 192.344 31.9453 192.023 31.9453C191.711 31.9453 191.391 32.0703 191.062 32.3203C190.742 32.5703 190.582 32.9258 190.582 33.3867L190.641 33.8438C190.594 33.9375 190.312 34.0938 189.797 34.3125C189.281 34.5312 188.984 34.6484 188.906 34.6641C188.781 34.6641 188.719 34.5156 188.719 34.2188C188.719 33.9141 188.809 33.5781 188.988 33.2109C189.168 32.8438 189.422 32.5078 189.75 32.2031C190.516 31.4922 191.391 31.1367 192.375 31.1367C193.359 31.1367 194.16 31.4102 194.777 31.957C195.395 32.4961 195.703 33.1406 195.703 33.8906V40.0664ZM190.301 39.7266C190.301 40.1016 190.445 40.4297 190.734 40.7109C191.023 40.9844 191.352 41.1211 191.719 41.1211C192.094 41.1211 192.547 40.9648 193.078 40.6523C193.609 40.332 193.875 40.0039 193.875 39.668V37.2891C193.875 37.2031 193.855 37.1602 193.816 37.1602C193.777 37.1602 193.75 37.1641 193.734 37.1719L191.016 38.4375C190.734 38.6406 190.543 38.8125 190.441 38.9531C190.348 39.0938 190.301 39.3516 190.301 39.7266Z" fill="black"/>
<path d="M40.8807 63V55.7273H41.7614V62.2188H45.142V63H40.8807ZM48.679 63.1136C48.1534 63.1136 47.7 62.9976 47.3189 62.7656C46.9401 62.5312 46.6477 62.2045 46.4418 61.7855C46.2382 61.3641 46.1364 60.8741 46.1364 60.3153C46.1364 59.7566 46.2382 59.2642 46.4418 58.8381C46.6477 58.4096 46.9342 58.0758 47.3011 57.8366C47.6705 57.5952 48.1013 57.4744 48.5938 57.4744C48.8778 57.4744 49.1584 57.5218 49.4354 57.6165C49.7124 57.7112 49.9645 57.8651 50.1918 58.0781C50.419 58.2888 50.6001 58.5682 50.7351 58.9162C50.87 59.2642 50.9375 59.6927 50.9375 60.2017V60.5568H46.733V59.8324H50.0852C50.0852 59.5246 50.0237 59.25 49.9006 59.0085C49.7798 58.767 49.607 58.5765 49.3821 58.4368C49.1596 58.2971 48.8968 58.2273 48.5938 58.2273C48.2599 58.2273 47.9711 58.3101 47.7273 58.4759C47.4858 58.6392 47.3 58.8523 47.1697 59.1151C47.0395 59.3778 46.9744 59.6596 46.9744 59.9602V60.4432C46.9744 60.8551 47.0455 61.2043 47.1875 61.4908C47.3319 61.7749 47.532 61.9915 47.7876 62.1406C48.0433 62.2874 48.3404 62.3608 48.679 62.3608C48.8991 62.3608 49.098 62.33 49.2756 62.2685C49.4555 62.2045 49.6106 62.1098 49.7408 61.9844C49.871 61.8565 49.9716 61.6979 50.0426 61.5085L50.8523 61.7358C50.767 62.0104 50.6238 62.2519 50.4226 62.4602C50.2214 62.6662 49.9728 62.8272 49.6768 62.9432C49.3809 63.0568 49.0483 63.1136 48.679 63.1136ZM55.1385 63V55.7273H55.9766V58.4119H56.0476C56.1091 58.3172 56.1944 58.1965 56.3033 58.0497C56.4145 57.9006 56.5732 57.768 56.7791 57.652C56.9875 57.5336 57.2692 57.4744 57.6243 57.4744C58.0836 57.4744 58.4884 57.5893 58.8388 57.8189C59.1892 58.0485 59.4626 58.3741 59.6591 58.7955C59.8556 59.2169 59.9538 59.714 59.9538 60.2869C59.9538 60.8646 59.8556 61.3653 59.6591 61.7891C59.4626 62.2105 59.1903 62.5372 58.8423 62.7692C58.4943 62.9988 58.093 63.1136 57.6385 63.1136C57.2881 63.1136 57.0076 63.0556 56.7969 62.9396C56.5862 62.8213 56.424 62.6875 56.3104 62.5384C56.1967 62.3868 56.1091 62.2614 56.0476 62.1619H55.9482V63H55.1385ZM55.9624 60.2727C55.9624 60.6847 56.0227 61.0481 56.1435 61.3629C56.2642 61.6754 56.4406 61.9205 56.6726 62.098C56.9046 62.2732 57.1887 62.3608 57.5249 62.3608C57.8752 62.3608 58.1676 62.2685 58.402 62.0838C58.6387 61.8968 58.8163 61.6458 58.9347 61.331C59.0554 61.0137 59.1158 60.661 59.1158 60.2727C59.1158 59.8892 59.0566 59.5436 58.9382 59.2358C58.8222 58.9257 58.6458 58.6806 58.4091 58.5007C58.1747 58.3184 57.88 58.2273 57.5249 58.2273C57.1839 58.2273 56.8975 58.3137 56.6655 58.4865C56.4335 58.657 56.2583 58.8961 56.1399 59.2038C56.0215 59.5092 55.9624 59.8655 55.9624 60.2727ZM61.2358 63V57.5455H62.0739V63H61.2358ZM61.6619 56.6364C61.4986 56.6364 61.3577 56.5807 61.2393 56.4695C61.1233 56.3582 61.0653 56.2244 61.0653 56.0682C61.0653 55.9119 61.1233 55.7782 61.2393 55.6669C61.3577 55.5556 61.4986 55.5 61.6619 55.5C61.8253 55.5 61.965 55.5556 62.081 55.6669C62.1993 55.7782 62.2585 55.9119 62.2585 56.0682C62.2585 56.2244 62.1993 56.3582 62.081 56.4695C61.965 56.5807 61.8253 56.6364 61.6619 56.6364ZM65.8958 63.1136C65.3702 63.1136 64.9168 62.9976 64.5357 62.7656C64.1569 62.5312 63.8645 62.2045 63.6586 61.7855C63.455 61.3641 63.3532 60.8741 63.3532 60.3153C63.3532 59.7566 63.455 59.2642 63.6586 58.8381C63.8645 58.4096 64.151 58.0758 64.5179 57.8366C64.8873 57.5952 65.3181 57.4744 65.8105 57.4744C66.0946 57.4744 66.3752 57.5218 66.6522 57.6165C66.9292 57.7112 67.1813 57.8651 67.4086 58.0781C67.6358 58.2888 67.8169 58.5682 67.9519 58.9162C68.0868 59.2642 68.1543 59.6927 68.1543 60.2017V60.5568H63.9498V59.8324H67.302C67.302 59.5246 67.2405 59.25 67.1174 59.0085C66.9966 58.767 66.8238 58.5765 66.5989 58.4368C66.3764 58.2971 66.1136 58.2273 65.8105 58.2273C65.4767 58.2273 65.1879 58.3101 64.9441 58.4759C64.7026 58.6392 64.5167 58.8523 64.3865 59.1151C64.2563 59.3778 64.1912 59.6596 64.1912 59.9602V60.4432C64.1912 60.8551 64.2623 61.2043 64.4043 61.4908C64.5487 61.7749 64.7488 61.9915 65.0044 62.1406C65.2601 62.2874 65.5572 62.3608 65.8958 62.3608C66.1159 62.3608 66.3148 62.33 66.4924 62.2685C66.6723 62.2045 66.8274 62.1098 66.9576 61.9844C67.0878 61.8565 67.1884 61.6979 67.2594 61.5085L68.0691 61.7358C67.9838 62.0104 67.8406 62.2519 67.6394 62.4602C67.4382 62.6662 67.1896 62.8272 66.8936 62.9432C66.5977 63.0568 66.2651 63.1136 65.8958 63.1136ZM70.2672 59.7188V63H69.4292V57.5455H70.2388V58.3977H70.3098C70.4377 58.1207 70.6318 57.8982 70.8922 57.7301C71.1526 57.5597 71.4888 57.4744 71.9007 57.4744C72.2701 57.4744 72.5932 57.5502 72.8702 57.7017C73.1472 57.8509 73.3626 58.0781 73.5165 58.3835C73.6704 58.6866 73.7473 59.0701 73.7473 59.5341V63H72.9093V59.5909C72.9093 59.1624 72.798 58.8286 72.5755 58.5895C72.3529 58.348 72.0475 58.2273 71.6593 58.2273C71.3917 58.2273 71.1526 58.2853 70.9419 58.4013C70.7336 58.5173 70.5691 58.6866 70.4483 58.9091C70.3276 59.1316 70.2672 59.4015 70.2672 59.7188ZM78.4038 59.4915V60.2727H75.2219V59.4915H78.4038ZM82.1653 63.1136C81.6397 63.1136 81.1864 62.9976 80.8052 62.7656C80.4264 62.5312 80.1341 62.2045 79.9281 61.7855C79.7245 61.3641 79.6227 60.8741 79.6227 60.3153C79.6227 59.7566 79.7245 59.2642 79.9281 58.8381C80.1341 58.4096 80.4205 58.0758 80.7875 57.8366C81.1568 57.5952 81.5877 57.4744 82.0801 57.4744C82.3642 57.4744 82.6447 57.5218 82.9217 57.6165C83.1987 57.7112 83.4508 57.8651 83.6781 58.0781C83.9054 58.2888 84.0865 58.5682 84.2214 58.9162C84.3564 59.2642 84.4238 59.6927 84.4238 60.2017V60.5568H80.2193V59.8324H83.5716C83.5716 59.5246 83.51 59.25 83.3869 59.0085C83.2662 58.767 83.0933 58.5765 82.8684 58.4368C82.6459 58.2971 82.3831 58.2273 82.0801 58.2273C81.7463 58.2273 81.4574 58.3101 81.2136 58.4759C80.9721 58.6392 80.7863 58.8523 80.6561 59.1151C80.5259 59.3778 80.4608 59.6596 80.4608 59.9602V60.4432C80.4608 60.8551 80.5318 61.2043 80.6738 61.4908C80.8182 61.7749 81.0183 61.9915 81.274 62.1406C81.5297 62.2874 81.8268 62.3608 82.1653 62.3608C82.3855 62.3608 82.5843 62.33 82.7619 62.2685C82.9418 62.2045 83.0969 62.1098 83.2271 61.9844C83.3573 61.8565 83.4579 61.6979 83.5289 61.5085L84.3386 61.7358C84.2534 62.0104 84.1101 62.2519 83.9089 62.4602C83.7077 62.6662 83.4591 62.8272 83.1632 62.9432C82.8672 63.0568 82.5346 63.1136 82.1653 63.1136ZM82.7761 56.892L82.0375 55.8977L81.2988 56.892H80.5034V56.8352L81.6539 55.358H82.421L83.5716 56.8352V56.892H82.7761ZM88.0708 57.5455V58.2557H85.2441V57.5455H88.0708ZM86.068 56.2386H86.9061V61.4375C86.9061 61.6742 86.9404 61.8518 87.0091 61.9702C87.0801 62.0862 87.17 62.1643 87.2789 62.2045C87.3902 62.2424 87.5074 62.2614 87.6305 62.2614C87.7228 62.2614 87.7986 62.2566 87.8578 62.2472C87.917 62.2353 87.9643 62.2259 87.9998 62.2188L88.1703 62.9716C88.1135 62.9929 88.0342 63.0142 87.9324 63.0355C87.8306 63.0592 87.7015 63.071 87.5453 63.071C87.3085 63.071 87.0765 63.0201 86.8493 62.9183C86.6243 62.8165 86.4373 62.6615 86.2882 62.4531C86.1414 62.2448 86.068 61.982 86.068 61.6648V56.2386ZM89.3315 63V57.5455H90.1412V58.3693H90.198C90.2974 58.0994 90.4773 57.8804 90.7377 57.7124C90.9982 57.5443 91.2917 57.4602 91.6184 57.4602C91.68 57.4602 91.7569 57.4614 91.8493 57.4638C91.9416 57.4661 92.0114 57.4697 92.0588 57.4744V58.3267C92.0304 58.3196 91.9653 58.3089 91.8635 58.2947C91.764 58.2782 91.6587 58.2699 91.5474 58.2699C91.2823 58.2699 91.0455 58.3255 90.8372 58.4368C90.6312 58.5457 90.4679 58.6972 90.3471 58.8913C90.2288 59.0831 90.1696 59.3021 90.1696 59.5483V63H89.3315ZM95.1731 63.1136C94.6475 63.1136 94.1942 62.9976 93.813 62.7656C93.4342 62.5312 93.1419 62.2045 92.9359 61.7855C92.7323 61.3641 92.6305 60.8741 92.6305 60.3153C92.6305 59.7566 92.7323 59.2642 92.9359 58.8381C93.1419 58.4096 93.4283 58.0758 93.7953 57.8366C94.1646 57.5952 94.5955 57.4744 95.0879 57.4744C95.372 57.4744 95.6525 57.5218 95.9295 57.6165C96.2065 57.7112 96.4586 57.8651 96.6859 58.0781C96.9132 58.2888 97.0943 58.5682 97.2292 58.9162C97.3642 59.2642 97.4316 59.6927 97.4316 60.2017V60.5568H93.2271V59.8324H96.5794C96.5794 59.5246 96.5178 59.25 96.3947 59.0085C96.274 58.767 96.1011 58.5765 95.8762 58.4368C95.6537 58.2971 95.3909 58.2273 95.0879 58.2273C94.7541 58.2273 94.4653 58.3101 94.2214 58.4759C93.9799 58.6392 93.7941 58.8523 93.6639 59.1151C93.5337 59.3778 93.4686 59.6596 93.4686 59.9602V60.4432C93.4686 60.8551 93.5396 61.2043 93.6816 61.4908C93.8261 61.7749 94.0261 61.9915 94.2818 62.1406C94.5375 62.2874 94.8346 62.3608 95.1731 62.3608C95.3933 62.3608 95.5922 62.33 95.7697 62.2685C95.9496 62.2045 96.1047 62.1098 96.2349 61.9844C96.3651 61.8565 96.4657 61.6979 96.5368 61.5085L97.3464 61.7358C97.2612 62.0104 97.118 62.2519 96.9167 62.4602C96.7155 62.6662 96.4669 62.8272 96.171 62.9432C95.8751 63.0568 95.5424 63.1136 95.1731 63.1136ZM101.519 65.0455V57.5455H102.329V58.4119H102.428C102.49 58.3172 102.575 58.1965 102.684 58.0497C102.795 57.9006 102.954 57.768 103.16 57.652C103.368 57.5336 103.65 57.4744 104.005 57.4744C104.464 57.4744 104.869 57.5893 105.219 57.8189C105.57 58.0485 105.843 58.3741 106.04 58.7955C106.236 59.2169 106.334 59.714 106.334 60.2869C106.334 60.8646 106.236 61.3653 106.04 61.7891C105.843 62.2105 105.571 62.5372 105.223 62.7692C104.875 62.9988 104.474 63.1136 104.019 63.1136C103.669 63.1136 103.388 63.0556 103.177 62.9396C102.967 62.8213 102.805 62.6875 102.691 62.5384C102.577 62.3868 102.49 62.2614 102.428 62.1619H102.357V65.0455H101.519ZM102.343 60.2727C102.343 60.6847 102.403 61.0481 102.524 61.3629C102.645 61.6754 102.821 61.9205 103.053 62.098C103.285 62.2732 103.569 62.3608 103.905 62.3608C104.256 62.3608 104.548 62.2685 104.782 62.0838C105.019 61.8968 105.197 61.6458 105.315 61.331C105.436 61.0137 105.496 60.661 105.496 60.2727C105.496 59.8892 105.437 59.5436 105.319 59.2358C105.203 58.9257 105.026 58.6806 104.79 58.5007C104.555 58.3184 104.26 58.2273 103.905 58.2273C103.564 58.2273 103.278 58.3137 103.046 58.4865C102.814 58.657 102.639 58.8961 102.52 59.2038C102.402 59.5092 102.343 59.8655 102.343 60.2727ZM109.829 63.1136C109.336 63.1136 108.904 62.9964 108.532 62.7621C108.163 62.5277 107.874 62.1998 107.666 61.7784C107.46 61.357 107.357 60.8646 107.357 60.3011C107.357 59.733 107.46 59.237 107.666 58.8132C107.874 58.3894 108.163 58.0604 108.532 57.826C108.904 57.5916 109.336 57.4744 109.829 57.4744C110.321 57.4744 110.752 57.5916 111.121 57.826C111.493 58.0604 111.782 58.3894 111.988 58.8132C112.196 59.237 112.3 59.733 112.3 60.3011C112.3 60.8646 112.196 61.357 111.988 61.7784C111.782 62.1998 111.493 62.5277 111.121 62.7621C110.752 62.9964 110.321 63.1136 109.829 63.1136ZM109.829 62.3608C110.203 62.3608 110.51 62.2649 110.752 62.0732C110.993 61.8814 111.172 61.6293 111.288 61.3168C111.404 61.0043 111.462 60.6657 111.462 60.3011C111.462 59.9366 111.404 59.5968 111.288 59.282C111.172 58.9671 110.993 58.7126 110.752 58.5185C110.51 58.3243 110.203 58.2273 109.829 58.2273C109.455 58.2273 109.147 58.3243 108.905 58.5185C108.664 58.7126 108.485 58.9671 108.369 59.282C108.253 59.5968 108.195 59.9366 108.195 60.3011C108.195 60.6657 108.253 61.0043 108.369 61.3168C108.485 61.6293 108.664 61.8814 108.905 62.0732C109.147 62.2649 109.455 62.3608 109.829 62.3608ZM117.017 60.7699V57.5455H117.855V63H117.017V62.0767H116.96C116.832 62.3537 116.634 62.5893 116.364 62.7834C116.094 62.9751 115.753 63.071 115.341 63.071C115 63.071 114.697 62.9964 114.432 62.8473C114.167 62.6958 113.958 62.4685 113.807 62.1655C113.655 61.8601 113.58 61.4754 113.58 61.0114V57.5455H114.418V60.9545C114.418 61.3523 114.529 61.6695 114.751 61.9062C114.976 62.143 115.263 62.2614 115.611 62.2614C115.819 62.2614 116.031 62.2081 116.246 62.1016C116.464 61.995 116.647 61.8317 116.793 61.6115C116.942 61.3913 117.017 61.1108 117.017 60.7699ZM119.39 63V57.5455H120.2V58.3693H120.257C120.356 58.0994 120.536 57.8804 120.796 57.7124C121.057 57.5443 121.35 57.4602 121.677 57.4602C121.739 57.4602 121.816 57.4614 121.908 57.4638C122 57.4661 122.07 57.4697 122.117 57.4744V58.3267C122.089 58.3196 122.024 58.3089 121.922 58.2947C121.823 58.2782 121.717 58.2699 121.606 58.2699C121.341 58.2699 121.104 58.3255 120.896 58.4368C120.69 58.5457 120.526 58.6972 120.406 58.8913C120.287 59.0831 120.228 59.3021 120.228 59.5483V63H119.39ZM128.295 57.5455V58.2557H125.469V57.5455H128.295ZM126.293 56.2386H127.131V61.4375C127.131 61.6742 127.165 61.8518 127.234 61.9702C127.305 62.0862 127.395 62.1643 127.504 62.2045C127.615 62.2424 127.732 62.2614 127.855 62.2614C127.947 62.2614 128.023 62.2566 128.082 62.2472C128.142 62.2353 128.189 62.2259 128.224 62.2188L128.395 62.9716C128.338 62.9929 128.259 63.0142 128.157 63.0355C128.055 63.0592 127.926 63.071 127.77 63.071C127.533 63.071 127.301 63.0201 127.074 62.9183C126.849 62.8165 126.662 62.6615 126.513 62.4531C126.366 62.2448 126.293 61.982 126.293 61.6648V56.2386ZM131.713 63.1136C131.221 63.1136 130.789 62.9964 130.417 62.7621C130.048 62.5277 129.759 62.1998 129.551 61.7784C129.345 61.357 129.242 60.8646 129.242 60.3011C129.242 59.733 129.345 59.237 129.551 58.8132C129.759 58.3894 130.048 58.0604 130.417 57.826C130.789 57.5916 131.221 57.4744 131.713 57.4744C132.206 57.4744 132.637 57.5916 133.006 57.826C133.378 58.0604 133.667 58.3894 133.873 58.8132C134.081 59.237 134.185 59.733 134.185 60.3011C134.185 60.8646 134.081 61.357 133.873 61.7784C133.667 62.1998 133.378 62.5277 133.006 62.7621C132.637 62.9964 132.206 63.1136 131.713 63.1136ZM131.713 62.3608C132.087 62.3608 132.395 62.2649 132.637 62.0732C132.878 61.8814 133.057 61.6293 133.173 61.3168C133.289 61.0043 133.347 60.6657 133.347 60.3011C133.347 59.9366 133.289 59.5968 133.173 59.282C133.057 58.9671 132.878 58.7126 132.637 58.5185C132.395 58.3243 132.087 58.2273 131.713 58.2273C131.339 58.2273 131.032 58.3243 130.79 58.5185C130.549 58.7126 130.37 58.9671 130.254 59.282C130.138 59.5968 130.08 59.9366 130.08 60.3011C130.08 60.6657 130.138 61.0043 130.254 61.3168C130.37 61.6293 130.549 61.8814 130.79 62.0732C131.032 62.2649 131.339 62.3608 131.713 62.3608ZM138.902 60.7699V57.5455H139.74V63H138.902V62.0767H138.845C138.717 62.3537 138.518 62.5893 138.248 62.7834C137.979 62.9751 137.638 63.071 137.226 63.071C136.885 63.071 136.582 62.9964 136.317 62.8473C136.051 62.6958 135.843 62.4685 135.692 62.1655C135.54 61.8601 135.464 61.4754 135.464 61.0114V57.5455H136.302V60.9545C136.302 61.3523 136.414 61.6695 136.636 61.9062C136.861 62.143 137.148 62.2614 137.496 62.2614C137.704 62.2614 137.916 62.2081 138.131 62.1016C138.349 61.995 138.531 61.8317 138.678 61.6115C138.827 61.3913 138.902 61.1108 138.902 60.7699ZM141.886 63.0568C141.71 63.0568 141.56 62.9941 141.435 62.8686C141.309 62.7431 141.246 62.5928 141.246 62.4176C141.246 62.2424 141.309 62.0921 141.435 61.9666C141.56 61.8411 141.71 61.7784 141.886 61.7784C142.061 61.7784 142.211 61.8411 142.337 61.9666C142.462 62.0921 142.525 62.2424 142.525 62.4176C142.525 62.5336 142.495 62.6402 142.436 62.7372C142.379 62.8343 142.302 62.9124 142.205 62.9716C142.111 63.0284 142.004 63.0568 141.886 63.0568ZM146.401 57.5455V58.2557H143.574V57.5455H146.401ZM144.398 56.2386H145.236V61.4375C145.236 61.6742 145.27 61.8518 145.339 61.9702C145.41 62.0862 145.5 62.1643 145.609 62.2045C145.72 62.2424 145.837 62.2614 145.961 62.2614C146.053 62.2614 146.129 62.2566 146.188 62.2472C146.247 62.2353 146.294 62.2259 146.33 62.2188L146.5 62.9716C146.444 62.9929 146.364 63.0142 146.262 63.0355C146.161 63.0592 146.032 63.071 145.875 63.071C145.639 63.071 145.407 63.0201 145.179 62.9183C144.954 62.8165 144.767 62.6615 144.618 62.4531C144.471 62.2448 144.398 61.982 144.398 61.6648V56.2386ZM149.89 63.1136C149.364 63.1136 148.911 62.9976 148.53 62.7656C148.151 62.5312 147.859 62.2045 147.653 61.7855C147.449 61.3641 147.347 60.8741 147.347 60.3153C147.347 59.7566 147.449 59.2642 147.653 58.8381C147.859 58.4096 148.145 58.0758 148.512 57.8366C148.881 57.5952 149.312 57.4744 149.805 57.4744C150.089 57.4744 150.369 57.5218 150.646 57.6165C150.923 57.7112 151.175 57.8651 151.403 58.0781C151.63 58.2888 151.811 58.5682 151.946 58.9162C152.081 59.2642 152.148 59.6927 152.148 60.2017V60.5568H147.944V59.8324H151.296C151.296 59.5246 151.235 59.25 151.112 59.0085C150.991 58.767 150.818 58.5765 150.593 58.4368C150.371 58.2971 150.108 58.2273 149.805 58.2273C149.471 58.2273 149.182 58.3101 148.938 58.4759C148.697 58.6392 148.511 58.8523 148.381 59.1151C148.25 59.3778 148.185 59.6596 148.185 59.9602V60.4432C148.185 60.8551 148.256 61.2043 148.398 61.4908C148.543 61.7749 148.743 61.9915 148.999 62.1406C149.254 62.2874 149.551 62.3608 149.89 62.3608C150.11 62.3608 150.309 62.33 150.487 62.2685C150.666 62.2045 150.821 62.1098 150.952 61.9844C151.082 61.8565 151.183 61.6979 151.254 61.5085L152.063 61.7358C151.978 62.0104 151.835 62.2519 151.634 62.4602C151.432 62.6662 151.184 62.8272 150.888 62.9432C150.592 63.0568 150.259 63.1136 149.89 63.1136ZM154.034 63.0568C153.859 63.0568 153.709 62.9941 153.583 62.8686C153.458 62.7431 153.395 62.5928 153.395 62.4176C153.395 62.2424 153.458 62.0921 153.583 61.9666C153.709 61.8411 153.859 61.7784 154.034 61.7784C154.209 61.7784 154.36 61.8411 154.485 61.9666C154.611 62.0921 154.673 62.2424 154.673 62.4176C154.673 62.5336 154.644 62.6402 154.585 62.7372C154.528 62.8343 154.451 62.9124 154.354 62.9716C154.259 63.0284 154.152 63.0568 154.034 63.0568ZM160.041 58.767L159.288 58.9801C159.241 58.8546 159.171 58.7327 159.078 58.6143C158.989 58.4936 158.865 58.3942 158.709 58.3161C158.553 58.2379 158.353 58.1989 158.109 58.1989C157.775 58.1989 157.497 58.2758 157.275 58.4297C157.054 58.5812 156.944 58.7741 156.944 59.0085C156.944 59.2169 157.02 59.3814 157.172 59.5021C157.323 59.6229 157.56 59.7235 157.882 59.804L158.691 60.0028C159.179 60.1212 159.542 60.3023 159.782 60.5462C160.021 60.7876 160.14 61.099 160.14 61.4801C160.14 61.7926 160.05 62.072 159.87 62.3182C159.693 62.5644 159.444 62.7585 159.125 62.9006C158.805 63.0426 158.433 63.1136 158.01 63.1136C157.453 63.1136 156.993 62.9929 156.628 62.7514C156.264 62.5099 156.033 62.1572 155.936 61.6932L156.731 61.4943C156.807 61.7879 156.95 62.008 157.161 62.1548C157.374 62.3016 157.652 62.375 157.995 62.375C158.386 62.375 158.696 62.2921 158.926 62.1264C159.158 61.9583 159.274 61.7571 159.274 61.5227C159.274 61.3333 159.208 61.1747 159.075 61.0469C158.942 60.9167 158.739 60.8196 158.464 60.7557L157.555 60.5426C157.056 60.4242 156.689 60.2408 156.454 59.9922C156.222 59.7412 156.106 59.4276 156.106 59.0511C156.106 58.7434 156.193 58.4711 156.365 58.2344C156.541 57.9976 156.779 57.8118 157.079 57.6768C157.382 57.5419 157.725 57.4744 158.109 57.4744C158.649 57.4744 159.073 57.5928 159.38 57.8295C159.69 58.0663 159.911 58.3788 160.041 58.767Z" fill="black"/>
<path d="M23.5 78C47 57.5 155 99 170.5 64" stroke="#5FC69E" stroke-width="4" stroke-linecap="round"/>
</svg>
